PathFileType	4	(X/Y/Z)	C:\ABL_Data\ExoAging\Piloting\Dec 6 2019\Generated_files\static_1.trc
DataRate	CameraRate	NumFrames	NumMarkers	Units	OrigDataRate	OrigDataStartFrame	OrigNumFrames
100.00	100.00	       18	20	mm	100.00	337	       539
Frame#	Time	R.Acromium			L.Acromium			Sternum			R.ASIS			R.PSIS			S2			L.PSIS			L.ASIS			R.Knee			R.Ankle			L.Knee			L.Ankle			R.MKnee			R.MAnkle			L.MKnee			L.MAnkle			C7			T12			Clav			R.Back			
		X1	Y1	Z1	X2	Y2	Z2	X3	Y3	Z3	X4	Y4	Z4	X5	Y5	Z5	X6	Y6	Z6	X7	Y7	Z7	X8	Y8	Z8	X9	Y9	Z9	X10	Y10	Z10	X11	Y11	Z11	X12	Y12	Z12	X13	Y13	Z13	X14	Y14	Z14	X15	Y15	Z15	X16	Y16	Z16	X17	Y17	Z17	X18	Y18	Z18	X19	Y19	Z19	X20	Y20	Z20	

337	3.360	769.12549	364.34811	1490.85413	782.64832	768.50684	1481.91870				847.05151	424.84094	1006.65912	663.78003	507.21970	1043.08972	647.28046	559.73834	1019.31610	669.33173	609.72131	1046.72681	856.85962	684.57715	1018.13354	755.66394	362.16003	512.86829	693.07385	359.17078	87.41112	754.51563	741.57324	509.80267	701.10205	752.31409	79.52195	778.51917	476.00565	490.02853	738.88623	439.45850	92.69502	764.10730	628.74725	487.41080	716.55316	661.74597	93.73735	691.68823	552.65308	1556.30603	666.02258	560.98932	1186.27307	849.98175	557.04486	1456.11633	622.10217	439.57745	1395.34033	
338	3.370	769.17316	364.43130	1490.88086	782.70532	768.51550	1481.88770				847.09131	424.82092	1006.68610	663.81885	507.22546	1043.07068	647.33185	559.76056	1019.32153	668.48761	609.69696	1047.03027	856.91846	684.58478	1018.13086	755.73401	362.14911	512.86725	693.07635	359.17267	87.42428	754.52020	741.61279	509.82632	701.09082	752.33307	79.51749	778.54602	475.99982	490.03741	738.89624	439.44867	92.72357	764.16370	628.68024	487.42230	716.52850	661.75165	93.72773	691.72601	552.61304	1556.32092	666.08826	560.98480	1186.26526	850.03149	557.12891	1456.07092	622.15533	439.61929	1395.36389	
339	3.380	769.20966	364.44751	1490.87134	782.72491	768.56091	1481.84851				847.14471	424.84622	1006.62805	663.85846	507.21936	1043.05750	647.36078	559.76019	1019.31055	668.60040	609.68707	1047.01892	856.97449	684.58002	1018.11890	755.72491	362.13019	512.93671	693.07013	359.19263	87.43126	754.19336	741.61383	509.90723	701.09918	752.37415	79.49440	778.54535	476.00922	490.01526	738.93207	439.44510	92.74093	764.18231	628.68597	487.42258	716.54913	661.75427	93.76253	691.81104	552.63190	1556.29065	666.15240	560.95892	1186.24377	850.08032	557.23993	1456.05249	622.19507	439.62341	1395.32776	
340	3.390	769.27234	364.48196	1490.90466	782.75372	768.54852	1481.82678				847.19855	424.81772	1006.63312	663.91449	507.21530	1043.07080	647.40167	559.75946	1019.31964	668.54736	609.69830	1047.03772	857.04340	684.60010	1018.13678	755.75574	362.16302	512.92896	693.08789	359.16180	87.45192	754.57904	741.58649	509.79257	701.10376	752.33344	79.50368	778.56354	476.00439	490.04044	738.94055	439.45343	92.74195	764.15533	628.72015	487.40906	716.56567	661.73083	93.76591	691.85400	552.62091	1556.24890	666.17114	560.97113	1186.25793	850.11035	557.16992	1456.09094	622.21991	439.63358	1395.34680	
341	3.400	769.34119	364.56168	1490.93481	782.77441	768.62750	1481.81885				847.25287	424.83322	1006.65442	663.93738	507.22058	1043.06396	647.45013	559.77625	1019.34662	668.66187	609.66357	1047.01648	857.11646	684.58820	1018.10687	755.79382	362.14651	512.95691	693.08319	359.16693	87.42937	754.59985	741.60699	509.81250	701.13123	752.35052	79.52128	778.60638	476.00769	490.02115	738.87219	439.45847	92.68619	764.20850	628.70325	487.43262	716.54791	661.72919	93.73292	691.87061	552.74768	1556.31958	666.21588	560.99982	1186.24292	850.17798	557.22510	1456.08997	622.29358	439.68411	1395.33044	
342	3.410	769.39880	364.56686	1490.91931	782.82843	768.61859	1481.77869				847.30695	424.85776	1006.61383	663.99841	507.22742	1043.09009	647.52838	559.76025	1019.34558	669.65796	609.74744	1046.68396	857.16260	684.56842	1018.10565	755.86340	362.15509	512.83466	693.10089	359.17688	87.43338	754.63599	741.57385	509.78427	701.12134	752.33203	79.49836	778.64233	476.00546	490.03387	738.91370	439.45831	92.70601	764.22656	628.71423	487.41791	716.55511	661.75427	93.73244	691.94434	552.81818	1556.31934	666.29346	560.98639	1186.25513	850.23688	557.26740	1456.07129	622.32990	439.71582	1395.32349	
343	3.420	769.46857	364.61621	1490.91772	782.87524	768.64856	1481.71912				847.37286	424.83963	1006.58813	664.04761	507.27164	1043.11768	647.59241	559.76678	1019.36200	668.81659	609.68854	1047.04822	857.20624	684.56897	1018.08984	755.85754	362.13422	512.91827	693.11194	359.17801	87.41581	754.65320	741.57471	509.79169	701.12262	752.37311	79.51398	778.70093	476.01791	490.03369	738.96069	439.45877	92.74384	764.24182	628.70544	487.40314	716.56970	661.76031	93.72444	692.00195	552.63080	1556.26599	666.32330	561.00134	1186.23584	850.28766	557.38428	1456.05273	622.38007	439.75296	1395.34509	
344	3.430	769.51727	364.64798	1490.91504	782.92554	768.67218	1481.73621				847.43762	424.86163	1006.56769	664.11652	507.19919	1043.09082	647.47607	559.76337	1019.39655	668.85400	609.72308	1047.06970	857.23987	684.55817	1018.05054	755.92334	362.14789	512.84473	693.13251	359.17334	87.43840	754.69128	741.59015	509.79865	701.14606	752.34875	79.50918	777.54358	475.77335	490.30902	738.98529	439.42953	92.69891	764.29980	628.90521	487.33780	716.61066	661.74683	93.70756	692.04822	552.79218	1556.27222	666.39130	561.06427	1186.25269	850.36145	557.36969	1456.04797	622.45831	439.76965	1395.31262	
345	3.440	769.62085	364.70486	1490.90515	782.96356	768.67450	1481.66943				847.49506	424.84473	1006.58124	664.12927	507.22818	1043.09448	647.52509	559.74347	1019.41376	668.88708	609.74982	1047.07397	857.27917	684.58118	1018.10614	755.90588	362.21106	512.86389	693.11627	359.18207	87.43639	754.71100	741.58618	509.79987	701.14856	752.32166	79.51422	777.50891	475.81009	490.31451	738.99652	439.43982	92.70349	764.28711	628.70337	487.39175	716.63342	661.73914	93.73942	692.10895	552.81958	1556.26367	666.43262	561.10693	1186.22266	850.41455	557.48108	1456.03210	622.49054	439.82068	1395.33777	
346	3.450	769.64655	364.76932	1490.94556	783.01105	768.69696	1481.66992				847.53467	424.85947	1006.58411	664.16687	507.26389	1043.10938	647.65198	559.74750	1019.40308	669.00378	609.70569	1047.05884	857.33502	684.57977	1018.12268	755.90070	362.13803	512.91864	693.10132	359.18832	87.44801	754.74072	741.60229	509.80453	701.12909	752.34851	79.51324	777.57758	475.78369	490.30878	738.95050	439.43994	92.74004	764.30188	628.72449	487.39349	716.58911	661.74292	93.73812	692.16449	552.91534	1556.29968	666.45117	561.10425	1186.22412	850.47662	557.42999	1456.03345	622.57355	439.80728	1395.33728	
347	3.460	769.73901	364.91855	1490.94153	783.07648	768.68866	1481.67236				847.55676	424.86664	1006.59558	664.25067	507.23306	1043.14185	647.66571	559.74463	1019.43268	669.96478	609.75653	1046.71252	857.33844	684.64020	1018.11169	755.93445	362.19202	512.84473	693.10638	359.17392	87.46357	754.75940	741.58868	509.79404	701.11353	752.33301	79.53394	777.62067	475.78995	490.33026	738.96185	439.46198	92.77654	764.36835	628.92340	487.34515	716.55273	661.72864	93.76378	692.22913	552.81622	1556.27356	666.56525	561.13654	1186.24146	850.54028	557.42865	1456.02576	622.60083	439.86139	1395.35352	
348	3.470	769.80347	364.83386	1490.96021	783.11652	768.72009	1481.62134				847.58789	424.83932	1006.58905	664.28802	507.24811	1043.15466	647.76007	559.74603	1019.44519	669.06219	609.69952	1047.06311	857.37891	684.63916	1018.09454	755.98810	362.19650	512.85297	693.08783	359.18845	87.48071	754.76965	741.58832	509.80753	701.10498	752.34454	79.55295	777.59534	475.77664	490.31769	738.94189	439.44937	92.76044	764.39911	628.87756	487.37009	716.54620	661.73273	93.76348	692.28076	552.88934	1556.27466	666.59058	561.09033	1186.23486	850.60052	557.56604	1456.03479	622.66608	439.84308	1395.34241	
349	3.480	769.85919	364.91507	1490.94983	783.16644	768.78461	1481.64880				847.64587	424.83585	1006.54340	664.32562	507.24060	1043.17969	647.79260	559.78339	1019.45453	670.10864	609.75696	1046.69922	857.45514	684.61078	1018.09131	755.96844	362.21631	512.84064	693.10211	359.18109	87.45979	754.78693	741.60132	509.80228	701.11786	752.33722	79.55035	777.57953	475.82690	490.31390	738.87848	439.47397	92.69649	764.42932	628.88226	487.36252	716.55945	661.73505	93.75766	692.34741	552.94312	1556.28235	666.65460	561.14209	1186.26477	850.68951	557.35187	1456.01563	622.74933	439.90210	1395.32385	
350	3.490	769.92926	364.86783	1490.94531	783.27533	768.76239	1481.63232				847.71967	424.80911	1006.54919	664.38928	507.28473	1043.17932	647.88110	559.77582	1019.44666	669.16510	609.75555	1047.08020	857.54291	684.57825	1018.17444	756.02191	362.15152	512.81055	693.10443	359.20123	87.44273	754.77551	741.60431	509.79428	701.13019	752.32410	79.51391	777.60785	475.81668	490.35376	738.95520	439.45007	92.74091	764.44330	628.85901	487.35400	716.57959	661.73969	93.73866	692.45166	552.91565	1556.26062	666.73553	561.13593	1186.24878	850.72925	557.46014	1455.99646	622.80957	439.84576	1395.35474	
351	3.500	769.99872	364.98383	1490.96838	783.28583	768.83899	1481.56274				847.81970	424.84839	1006.52771	664.40393	507.29471	1043.16846	647.92267	559.76587	1019.44189	669.27124	609.73199	1047.06409	857.54413	684.65826	1018.02832	756.01196	362.16153	512.84192	693.09613	359.17993	87.46420	754.79077	741.60651	509.75375	701.12384	752.35645	79.51340	777.69336	475.80197	490.33249	738.96478	439.45419	92.72597	764.45349	628.89178	487.34897	716.58997	661.74683	93.73496	692.52667	552.82397	1556.24170	666.77283	561.11884	1186.21594	850.76886	557.55939	1455.96802	622.86310	439.95187	1395.36121	
352	3.510	770.05945	365.02539	1490.97900	783.36267	768.85443	1481.54675				847.89471	424.78116	1006.50214	664.46332	507.29294	1043.17566	647.98199	559.76868	1019.45319	669.29022	609.73059	1047.06335	857.59082	684.66772	1018.04266	756.06537	362.17542	512.82690	693.10980	359.18149	87.45973	754.81171	741.59082	509.77917	701.15778	752.33728	79.49366	777.73938	475.82501	490.28925	738.96460	439.46503	92.69423	764.37152	628.70593	487.38562	716.62836	661.73535	93.76075	692.59619	552.88037	1556.23621	666.82660	561.19128	1186.22241	850.83612	557.65045	1455.93713	622.91364	439.89676	1395.39160	
353	3.520	770.14563	365.04306	1490.97485	783.47559	768.84198	1481.55334				847.92957	424.81683	1006.50604	664.52625	507.28061	1043.21228	648.03223	559.78668	1019.47974	669.28180	609.77960	1047.11682	857.65210	684.66663	1018.03552	756.10626	362.18967	512.81915	693.12811	359.17993	87.44648	754.81146	741.59308	509.77167	701.15228	752.33533	79.51704	777.70575	475.82990	490.32770	738.92206	439.46103	92.70207	764.47754	628.88190	487.35388	716.63348	661.73486	93.75621	692.65814	552.98389	1556.23523	666.88800	561.20502	1186.23950	850.93524	557.44196	1455.93579	622.97723	439.94394	1395.36682	
354	3.530	770.20905	365.06854	1491.02344	783.52026	768.90607	1481.53870				848.00378	424.83966	1006.49615	664.56915	507.32806	1043.24231	648.09613	559.79449	1019.48682	669.34241	609.77521	1047.10840	857.67328	684.65881	1018.02057	756.07214	362.16000	512.92084	693.10718	359.22000	87.47688	754.81812	741.57892	509.79691	701.15283	752.30133	79.52197	777.72064	475.82022	490.31308	738.92920	439.45682	92.69790	764.47900	628.91882	487.34247	716.65088	661.73596	93.74551	692.71625	553.03363	1556.26062	666.92242	561.21204	1186.25134	850.98151	557.46198	1455.95618	623.04614	440.02557	1395.37622	
